<svg width="15" height="15" viewBox="0 0 15 15" fill="none" xmlns="http://www.w3.org/2000/svg">
    <path
        d="M8.27778 0.5H6.72222V8.27778H8.27778V0.5ZM12.0344 2.18778L10.93 3.29222C12.1589 4.28 12.9444 5.79667 12.9444 7.5C12.9444 10.51 10.51 12.9444 7.5 12.9444C4.49 12.9444 2.05556 10.51 2.05556 7.5C2.05556 5.79667 2.84111 4.28 4.06222 3.28444L2.96556 2.18778C1.45667 3.47111 0.5 5.36889 0.5 7.5C0.5 11.3656 3.63444 14.5 7.5 14.5C11.3656 14.5 14.5 11.3656 14.5 7.5C14.5 5.36889 13.5433 3.47111 12.0344 2.18778Z"
        fill="#F9999B" />
</svg>