<svg width="18" height="18" viewBox="0 0 19 18" fill="none" xmlns="http://www.w3.org/2000/svg"
    color="var(--primaryText)">
    <path
        d="M9.75 18C14.7206 18 18.75 13.9706 18.75 9C18.75 4.02944 14.7206 0 9.75 0C4.77944 0 0.75 4.02944 0.75 9C0.75 13.9706 4.77944 18 9.75 18Z"
        fill="white"></path>
    <path fill-rule="evenodd" clip-rule="evenodd"
        d="M9.75 18C14.7206 18 18.75 13.9706 18.75 9C18.75 4.02944 14.7206 0 9.75 0C4.77944 0 0.75 4.02944 0.75 9C0.75 13.9706 4.77944 18 9.75 18ZM6.36276 11.4721C6.609 11.5496 6.87576 11.5884 7.16304 11.5884C7.82425 11.5884 8.35093 11.4357 8.74308 11.1301C9.13523 10.8201 9.40883 10.3526 9.56388 9.72792C9.60949 9.53183 9.6528 9.33577 9.69384 9.13968C9.73945 8.94359 9.77819 8.74523 9.81012 8.5446C9.86484 8.23453 9.85573 7.9632 9.78276 7.73064C9.71436 7.49808 9.59351 7.30199 9.42024 7.1424C9.25151 6.98281 9.04404 6.86423 8.7978 6.78672C8.55613 6.70464 8.29164 6.6636 8.00436 6.6636C7.33861 6.6636 6.80963 6.82319 6.41748 7.1424C6.02533 7.46161 5.754 7.929 5.60352 8.5446C5.55791 8.74523 5.51233 8.94359 5.46672 9.13968C5.42568 9.33577 5.38691 9.53183 5.35044 9.72792C5.30029 10.038 5.3094 10.3093 5.3778 10.5419C5.45077 10.7744 5.57159 10.9682 5.74032 11.1233C5.90905 11.2783 6.11652 11.3946 6.36276 11.4721ZM7.90176 10.3846C7.71481 10.5305 7.4982 10.6034 7.25196 10.6034C7.00115 10.6034 6.82104 10.5305 6.7116 10.3846C6.60216 10.2387 6.5748 10.0061 6.62952 9.68688C6.66599 9.48625 6.70249 9.297 6.73896 9.11916C6.78 8.94132 6.82561 8.75664 6.87576 8.56512C6.95327 8.24591 7.08323 8.01335 7.26564 7.86744C7.45259 7.72153 7.6692 7.64856 7.91544 7.64856C8.16168 7.64856 8.34179 7.72153 8.4558 7.86744C8.56981 8.01335 8.59717 8.24591 8.53788 8.56512C8.50595 8.75664 8.46948 8.94132 8.42844 9.11916C8.39197 9.297 8.34863 9.48625 8.29848 9.68688C8.22097 10.0061 8.08871 10.2387 7.90176 10.3846ZM9.98054 11.4721C10.0079 11.5041 10.0444 11.52 10.09 11.52H11.0202C11.0704 11.52 11.1137 11.5041 11.1502 11.4721C11.1912 11.4402 11.2163 11.3991 11.2254 11.349L11.5401 9.85104H12.4635C13.0517 9.85104 13.5191 9.72565 13.8657 9.47484C14.2168 9.22403 14.4493 8.83645 14.5633 8.31204C14.6181 8.04755 14.6158 7.81729 14.5565 7.6212C14.4972 7.42057 14.3923 7.25411 14.2419 7.12188C14.0914 6.98965 13.9021 6.89159 13.6741 6.82776C13.4507 6.76393 13.1999 6.732 12.9217 6.732H11.1023C11.0567 6.732 11.0134 6.74795 10.9723 6.77988C10.9313 6.81181 10.9062 6.85285 10.8971 6.903L9.95318 11.349C9.94404 11.3991 9.95318 11.4402 9.98054 11.4721ZM12.5045 8.90712H11.7179L11.9847 7.68276H12.8055C12.9696 7.68276 13.0904 7.71012 13.168 7.76484C13.2501 7.81956 13.2979 7.89253 13.3116 7.98372C13.3253 8.07491 13.3207 8.17981 13.2979 8.29836C13.2523 8.50356 13.1543 8.65631 13.0038 8.75664C12.8579 8.85697 12.6915 8.90712 12.5045 8.90712Z"
        fill="#FF0420"></path>
</svg>