<svg width="40" height="41" viewBox="0 0 40 41" fill="none" xmlns="http://www.w3.org/2000/svg">
    <rect y="0.5" width="40" height="40" rx="20" fill="#0E111E" />
    <rect x="10.5" y="11" width="19" height="19" stroke="black" />
    <path
        d="M28.0909 27.4085L24.9992 24.3418C26.1993 22.8455 26.7804 20.9462 26.6232 19.0346C26.466 17.1229 25.5822 15.3442 24.1538 14.064C22.7253 12.7839 20.8607 12.0998 18.9433 12.1522C17.0259 12.2047 15.2015 12.9898 13.8451 14.3461C12.4888 15.7024 11.7037 17.5269 11.6512 19.4443C11.5988 21.3617 12.2829 23.2263 13.5631 24.6548C14.8432 26.0832 16.6219 26.9669 18.5336 27.1242C20.4453 27.2814 22.3445 26.7002 23.8409 25.5002L26.9075 28.5668C26.985 28.6449 27.0772 28.7069 27.1787 28.7492C27.2803 28.7915 27.3892 28.8133 27.4992 28.8133C27.6092 28.8133 27.7181 28.7915 27.8197 28.7492C27.9212 28.7069 28.0134 28.6449 28.0909 28.5668C28.2411 28.4114 28.325 28.2038 28.325 27.9877C28.325 27.7716 28.2411 27.5639 28.0909 27.4085ZM19.1659 25.5002C18.0121 25.5002 16.8843 25.158 15.925 24.5171C14.9657 23.8761 14.2181 22.9651 13.7766 21.8992C13.335 20.8333 13.2195 19.6604 13.4446 18.5288C13.6697 17.3972 14.2253 16.3578 15.0411 15.542C15.8569 14.7262 16.8963 14.1707 18.0278 13.9456C19.1594 13.7205 20.3323 13.836 21.3982 14.2775C22.4641 14.719 23.3751 15.4667 24.0161 16.426C24.6571 17.3853 24.9992 18.5131 24.9992 19.6668C24.9992 21.2139 24.3846 22.6977 23.2906 23.7916C22.1967 24.8856 20.713 25.5002 19.1659 25.5002Z"
        fill="white" stroke="white" stroke-width="0.5" />
</svg>