<svg width="184" height="50" viewBox="0 0 184 50" fill="none" xmlns="http://www.w3.org/2000/svg">
    <path fill-rule="evenodd" clip-rule="evenodd"
        d="M34.5413 0.470436C35.0053 0.0321422 35.0374 0.0025167 35.0398 0.000669184L35.0418 0.00267674C35.043 0.00390057 35.0447 0.00541235 35.0465 0.00736102C35.0502 0.0113211 35.0555 0.0165153 35.0619 0.0234214C35.0748 0.0373613 35.0929 0.0578849 35.1161 0.083648C35.1625 0.135157 35.229 0.20979 35.3122 0.307155C35.4788 0.50219 35.7133 0.788018 35.9927 1.15702C36.5513 1.89463 37.2905 2.96834 38.019 4.32226C39.3555 6.80605 40.6685 10.2565 40.7513 14.3132C43.5275 13.2241 46.9464 13.2811 49.7016 13.6079C51.2721 13.7941 52.6672 14.0728 53.6692 14.3051C54.1707 14.4214 54.5754 14.5268 54.8557 14.6029C54.9956 14.641 55.1047 14.6717 55.1796 14.6933C55.217 14.7041 55.246 14.7128 55.2659 14.7187C55.2758 14.7217 55.2839 14.7238 55.2893 14.7254L55.2974 14.7281L55.1729 16.0618C55.1732 16.0649 55.1736 16.0651 55.1736 16.0651H55.1722C55.1722 16.0651 55.1696 16.0655 55.1675 16.0658C55.1635 16.0662 55.157 16.0668 55.1488 16.0678C55.1319 16.0697 55.1061 16.0725 55.0725 16.0765C55.005 16.0845 54.9047 16.0967 54.7754 16.1133C54.5162 16.1465 54.1405 16.1972 53.6779 16.2672C52.752 16.4073 51.4811 16.624 50.0998 16.9297C48.7167 17.2358 47.2335 17.6291 45.8799 18.1202C45.3651 18.3069 44.8751 18.5053 44.4204 18.7157C46.7788 19.0014 48.8161 19.8477 50.4043 20.7507L51.9461 21.3965C52.0333 21.1477 52.1215 20.8981 52.2071 20.6463L55.3763 19.1186L60.1208 20.823C60.1282 20.7981 60.137 20.7735 60.1443 20.7487L63.3061 19.1045L68.5492 20.8872L69.1066 21.8509C70.828 20.2996 72.8616 19.1673 75.1219 18.95L76.9769 19.5435L78.5602 20.9207L78.6244 20.7875L81.7007 19.5455L85.8021 21.0606L85.9165 20.6985L89.2183 19.1634L94.6715 21.4353L95.3159 22.6666L96.8557 20.4028L99.9165 19.5442L100.247 19.6948L104.188 21.2847L105.033 23.1611C105.058 23.1311 105.082 23.1005 105.107 23.0708C106.82 21.0185 109.131 19.3407 111.772 18.9633L112.915 19.0697L119.197 21.2058L119.354 20.7032L122.661 19.1648L127.99 21.3965C128.077 21.1477 128.166 20.8981 128.251 20.6463L131.42 19.1186L136.165 20.823C136.172 20.7981 136.181 20.7735 136.188 20.7487L139.35 19.1045L144.593 20.8872L145.151 21.8509C146.872 20.2996 148.906 19.1673 151.166 18.95L153.021 19.5435L154.604 20.9207L154.669 20.7875L157.745 19.5455L162.288 21.2232L162.511 21.6775L162.934 20.6256L166.111 19.2437L171.068 21.1589L171.9 19.9624L174.807 19.0664L181.483 21.618L183.069 23.9615C183.007 27.7964 181.527 31.9694 179.353 35.2606C177.809 37.6002 175.691 39.813 173.173 40.9902C174.162 41.2769 175.092 41.5786 175.958 41.8969C178.155 42.7042 179.979 43.6273 181.331 44.6901C182.686 45.7545 183.609 46.9933 183.91 48.4302L183.239 49.256H0.621672L0 48.283C0.790612 46.5738 2.61366 44.7692 5.37689 43.3364C8.07492 41.9374 11.7102 40.8692 16.2846 40.5813C21.4649 29.9431 24.5363 25.701 29.594 19.6539C25.0102 18.2211 21.6297 17.8585 19.3802 17.8585C18.1778 17.8585 17.2967 17.9624 16.7256 18.0626C16.44 18.1127 16.2317 18.162 16.0992 18.1971C16.033 18.2147 15.9852 18.2284 15.9567 18.2373C15.9426 18.2417 15.9328 18.245 15.9279 18.2466H15.9259C15.9259 18.2466 15.9253 18.2439 15.9239 18.2399L15.3143 17.0334L15.6964 17.6009C15.314 17.0333 15.3149 17.0327 15.3149 17.0327L15.3156 17.0321L15.3176 17.0307C15.3191 17.0297 15.3214 17.0289 15.3236 17.0274C15.3283 17.0243 15.3345 17.0198 15.3424 17.0147C15.3586 17.0041 15.3819 16.989 15.4113 16.9705C15.47 16.9335 15.5548 16.8811 15.6649 16.8166C15.8856 16.6873 16.2085 16.5081 16.6259 16.3027C17.4604 15.8919 18.6765 15.374 20.2201 14.9342C22.9753 14.1491 26.7748 13.6138 31.3038 14.3794C29.3662 11.7149 27.2741 9.68941 25.5809 8.28249C24.5946 7.46295 23.7458 6.85467 23.1471 6.45294C22.848 6.25225 22.6113 6.10311 22.4511 6.00526C22.3712 5.95643 22.3105 5.92025 22.2704 5.89685C22.2506 5.88524 22.2356 5.87677 22.2263 5.87142C22.2218 5.86886 22.2182 5.86717 22.2162 5.86607L22.2142 5.86473L22.6512 4.58926L22.5495 5.26715C22.6511 4.58948 22.6512 4.58926 22.6512 4.58926L22.6525 4.58993H22.6546C22.6561 4.59017 22.6582 4.5909 22.6606 4.59127C22.6655 4.59204 22.6725 4.5926 22.6807 4.59395C22.697 4.59663 22.7198 4.60079 22.7489 4.60599C22.8072 4.61644 22.8908 4.63236 22.9978 4.65484C23.2123 4.69988 23.5216 4.77179 23.9113 4.88036C24.6906 5.09747 25.7941 5.46181 27.1133 6.05545C29.4365 7.10089 32.4277 8.85668 35.4942 11.7643C35.355 9.89749 35.0407 7.59291 34.7206 5.54419C34.5074 4.17988 34.2944 2.94295 34.1344 2.04703C34.0544 1.59918 33.9876 1.23653 33.941 0.986377C33.9178 0.861666 33.8999 0.764826 33.8875 0.699297C33.8813 0.666504 33.8766 0.641014 33.8734 0.624349C33.8719 0.616107 33.8702 0.609725 33.8694 0.605612C33.869 0.603669 33.8687 0.600927 33.8687 0.600927L33.8681 0.599589L35.0391 0L34.5413 0.470436ZM180.407 44.8587C181.974 45.9554 182.95 47.1882 183.239 48.5707C182.934 47.1115 181.865 45.8191 180.142 44.6774L180.407 44.8587ZM25.2898 41.2425L25.2905 41.2418C25.309 41.1332 25.3292 41.0254 25.348 40.9179C25.3292 41.0256 25.3083 41.1336 25.2898 41.2425ZM37.8076 38.3007C36.319 39.0092 34.361 39.4062 32.1269 39.4062L32.1275 39.4069C34.3614 39.4069 36.319 39.0092 37.8076 38.3007ZM45.7976 38.7538H45.799L42.2764 37.4884L45.7976 38.7538ZM50.9068 37.9079C50.6111 38.1208 50.3331 38.3048 50.0657 38.466L50.067 38.4654C50.3341 38.3043 50.6115 38.1205 50.9068 37.9079ZM37.6844 25.0757C36.3213 26.3689 35.0283 28.2214 34.1545 30.3883C35.0281 28.2219 36.3211 26.3695 37.6838 25.0763L37.6844 25.0757ZM161.433 23.5372L156.829 38.0177H156.831L161.433 23.5372ZM72.6935 37.21L72.6948 37.2093L77.0693 30.7396L72.6935 37.21ZM85.3892 23.5372L81.1553 36.8546L81.156 36.854L85.3892 23.5372ZM91.1395 36.0162C90.9747 36.1935 90.8081 36.3661 90.6416 36.5354L90.6423 36.5348C90.8086 36.3657 90.9749 36.1933 91.1395 36.0162ZM99.2795 21.9646L103.264 23.5727L98.7408 36.3347L98.7414 36.334L103.264 23.5727L99.2795 21.9646ZM113.728 25.0757C112.365 26.3689 111.072 28.2214 110.199 30.3883C111.072 28.2219 112.365 26.3695 113.728 25.0763L113.728 25.0757ZM93.2528 33.484C92.9539 33.8781 92.6512 34.2617 92.3454 34.6336C92.8307 34.0434 93.308 33.4235 93.7754 32.78L93.2528 33.484ZM50.8914 25.1359C50.3206 26.9792 49.2689 29.4487 47.2196 33.2049C49.2692 29.4482 50.3212 26.9786 50.8921 25.1352L50.8914 25.1359ZM124.488 30.8848C124.126 31.5997 123.719 32.3703 123.264 33.2049C123.897 32.0434 124.437 31.0055 124.895 30.0705L124.488 30.8848ZM95.2945 30.5623C95.2505 30.6301 95.2055 30.697 95.1613 30.7644C95.3704 30.445 95.578 30.1226 95.7823 29.7968L95.2945 30.5623ZM170.29 23.5024L167.633 30.4238L167.635 30.4211L170.29 23.5024ZM41.2846 30.1434L41.2853 30.1441L42.5655 25.5742L41.2846 30.1434ZM119.111 23.7821L117.329 30.1434L117.329 30.1441L119.111 23.7821ZM127.3 23.7821C126.994 25.1366 126.429 26.8326 125.263 29.3049L125.596 28.5862C126.54 26.4968 127.025 25.0012 127.3 23.7821ZM180.601 23.922C180.586 24.8575 180.471 25.8286 180.268 26.8075C180.449 25.9359 180.561 25.0707 180.593 24.2312L180.601 23.922ZM93.1491 25.9423C93.3204 25.3729 93.4696 24.8146 93.5981 24.2666L93.7226 23.7125C93.5674 24.4367 93.3786 25.1798 93.1491 25.9423ZM76.9562 26.0246C76.8713 26.0752 76.7861 26.1285 76.7005 26.1838L76.9562 26.0246C77.041 25.9739 77.1258 25.9252 77.2098 25.8794L76.9562 26.0246ZM153 26.0246C152.915 26.0752 152.83 26.1285 152.745 26.1838L153 26.0246C153.085 25.9739 153.17 25.9252 153.254 25.8794L153 26.0246ZM19.3796 17.1733C16.9327 17.1733 15.7317 17.5885 15.6964 17.6009L15.6971 17.6015C15.6971 17.6015 16.896 17.1733 19.3796 17.1733ZM52.81 15.7104C52.4695 15.7667 52.1013 15.8323 51.7119 15.9045C52.0987 15.8327 52.4647 15.7678 52.8033 15.7118L52.81 15.7104ZM34.5413 0.470436C34.6115 0.54514 40.3633 6.69121 40.0594 15.3839L40.06 15.3832C40.3655 6.6375 34.5413 0.470436 34.5413 0.470436ZM22.5495 5.26715C22.6262 5.27885 29.44 6.33564 36.2537 13.4901L36.253 13.4887C29.401 6.29492 22.5495 5.26715 22.5495 5.26715Z"
        fill="#0E111E" />
    <path d="M15.9266 18.2473L15.9252 18.248L15.9259 18.2466L15.9266 18.2473Z" fill="#0E111E" />
    <mask id="path-2-outside-1_35_40" maskUnits="userSpaceOnUse" x="22.9727" y="18.3706" width="161"
        height="30" fill="black">
        <rect fill="white" x="22.9727" y="18.3706" width="161" height="30" />
        <path
            d="M32.1246 39.4069C30.237 39.4069 28.1748 39.1273 25.9727 38.533L26.6368 34.3385H35.2704V33.4297C32.2993 33.1501 29.9924 32.486 27.8252 31.2276C28.8389 26.2642 32.4042 21.9299 36.0744 21.4056L43.0652 23.7824L41.2825 30.1441L37.2628 29.7246L37.6823 25.0757C36.319 26.369 35.0257 28.2216 34.1519 30.3887L39.0105 32.2064L39.43 37.2397C37.9269 38.6029 35.3054 39.4069 32.1246 39.4069Z" />
        <path
            d="M55.8327 39.3719L51.1488 37.7291C49.7856 38.7428 48.8419 39.1972 47.5136 39.3719L40.8024 36.9601L45.6611 21.4405L51.2537 23.7824C50.7643 25.9496 49.6109 28.9906 46.3951 34.6881L47.8632 35.2474C50.5896 31.4374 52.7567 26.6836 54.5394 21.4405L59.5028 23.2232C58.4193 27.2079 56.8463 30.5635 54.3297 34.6531L55.8327 35.2124C58.7688 31.0878 61.3554 25.3903 62.5089 21.4405L67.752 23.2232C66.1791 31.2276 60.2019 38.9175 55.8327 39.3719Z" />
        <path
            d="M80.3535 39.3719L75.1803 37.3096L77.0678 30.7383L71.2305 39.3719L64.6941 36.9951C64.8339 30.3887 69.9022 21.9299 75.355 21.4056L79.3748 24.901L80.8428 21.86L85.3868 23.5378L80.3535 39.3719ZM77.9766 26.6487L77.2076 25.8797C74.5161 27.3477 71.3353 31.3325 70.1119 35.6318L70.7411 36.0163L77.9766 26.6487Z" />
        <path
            d="M96.4107 42.9023L90.8181 45.4539L86.5537 43.846L87.6373 40.3157L91.3075 41.0497L95.7816 29.7945C93.195 33.9191 90.2239 37.5893 87.078 39.3719L83.4078 36.8552L88.2665 21.4405L93.7193 23.7125C93.0901 26.6487 91.9366 29.8994 89.5597 33.4647L90.5734 34.024L98.8925 21.7901L99.277 21.9648L103.262 23.5727L96.4107 42.9023Z" />
        <path
            d="M108.169 39.4069C106.281 39.4069 104.219 39.1273 102.017 38.533L102.681 34.3385H111.315V33.4297C108.343 33.1501 106.036 32.486 103.869 31.2276C104.883 26.2642 108.448 21.9299 112.118 21.4056L119.109 23.7824L117.327 30.1441L113.307 29.7246L113.726 25.0757C112.363 26.369 111.07 28.2216 110.196 30.3887L115.055 32.2064L115.474 37.2397C113.971 38.6029 111.349 39.4069 108.169 39.4069Z" />
        <path
            d="M131.877 39.3719L127.193 37.7291C125.83 38.7428 124.886 39.1972 123.558 39.3719L116.847 36.9601L121.705 21.4405L127.298 23.7824C126.808 25.9496 125.655 28.9906 122.439 34.6881L123.907 35.2474C126.634 31.4374 128.801 26.6836 130.583 21.4405L135.547 23.2232C134.463 27.2079 132.89 30.5635 130.374 34.6531L131.877 35.2124C134.813 31.0878 137.4 25.3903 138.553 21.4405L143.796 23.2232C142.223 31.2276 136.246 38.9175 131.877 39.3719Z" />
        <path
            d="M156.398 39.3719L151.224 37.3096L153.112 30.7383L147.275 39.3719L140.738 36.9951C140.878 30.3887 145.946 21.9299 151.399 21.4056L155.419 24.901L156.887 21.86L161.431 23.5378L156.398 39.3719ZM154.021 26.6487L153.252 25.8797C150.56 27.3477 147.379 31.3325 146.156 35.6318L146.785 36.0163L154.021 26.6487Z" />
        <path
            d="M169.973 39.3719L165.639 35.7018L161.899 45.6637L156.795 42.5178L165.219 21.5454L170.288 23.5028L167.631 30.4237L173.923 21.3706L180.599 23.9222C180.494 30.4936 175.426 38.8127 169.973 39.3719ZM167.177 34.0939L168.121 34.8629C170.777 33.3948 174.028 29.445 175.216 25.2505L174.307 24.8311L167.177 34.0939Z" />
    </mask>
    <path
        d="M32.1246 39.4069C30.237 39.4069 28.1748 39.1273 25.9727 38.533L26.6368 34.3385H35.2704V33.4297C32.2993 33.1501 29.9924 32.486 27.8252 31.2276C28.8389 26.2642 32.4042 21.9299 36.0744 21.4056L43.0652 23.7824L41.2825 30.1441L37.2628 29.7246L37.6823 25.0757C36.319 26.369 35.0257 28.2216 34.1519 30.3887L39.0105 32.2064L39.43 37.2397C37.9269 38.6029 35.3054 39.4069 32.1246 39.4069Z"
        fill="#FDF7EC" />
    <path
        d="M55.8327 39.3719L51.1488 37.7291C49.7856 38.7428 48.8419 39.1972 47.5136 39.3719L40.8024 36.9601L45.6611 21.4405L51.2537 23.7824C50.7643 25.9496 49.6109 28.9906 46.3951 34.6881L47.8632 35.2474C50.5896 31.4374 52.7567 26.6836 54.5394 21.4405L59.5028 23.2232C58.4193 27.2079 56.8463 30.5635 54.3297 34.6531L55.8327 35.2124C58.7688 31.0878 61.3554 25.3903 62.5089 21.4405L67.752 23.2232C66.1791 31.2276 60.2019 38.9175 55.8327 39.3719Z"
        fill="#FDF7EC" />
    <path
        d="M80.3535 39.3719L75.1803 37.3096L77.0678 30.7383L71.2305 39.3719L64.6941 36.9951C64.8339 30.3887 69.9022 21.9299 75.355 21.4056L79.3748 24.901L80.8428 21.86L85.3868 23.5378L80.3535 39.3719ZM77.9766 26.6487L77.2076 25.8797C74.5161 27.3477 71.3353 31.3325 70.1119 35.6318L70.7411 36.0163L77.9766 26.6487Z"
        fill="#FDF7EC" />
    <path
        d="M96.4107 42.9023L90.8181 45.4539L86.5537 43.846L87.6373 40.3157L91.3075 41.0497L95.7816 29.7945C93.195 33.9191 90.2239 37.5893 87.078 39.3719L83.4078 36.8552L88.2665 21.4405L93.7193 23.7125C93.0901 26.6487 91.9366 29.8994 89.5597 33.4647L90.5734 34.024L98.8925 21.7901L99.277 21.9648L103.262 23.5727L96.4107 42.9023Z"
        fill="#FDF7EC" />
    <path
        d="M108.169 39.4069C106.281 39.4069 104.219 39.1273 102.017 38.533L102.681 34.3385H111.315V33.4297C108.343 33.1501 106.036 32.486 103.869 31.2276C104.883 26.2642 108.448 21.9299 112.118 21.4056L119.109 23.7824L117.327 30.1441L113.307 29.7246L113.726 25.0757C112.363 26.369 111.07 28.2216 110.196 30.3887L115.055 32.2064L115.474 37.2397C113.971 38.6029 111.349 39.4069 108.169 39.4069Z"
        fill="#FDF7EC" />
    <path
        d="M131.877 39.3719L127.193 37.7291C125.83 38.7428 124.886 39.1972 123.558 39.3719L116.847 36.9601L121.705 21.4405L127.298 23.7824C126.808 25.9496 125.655 28.9906 122.439 34.6881L123.907 35.2474C126.634 31.4374 128.801 26.6836 130.583 21.4405L135.547 23.2232C134.463 27.2079 132.89 30.5635 130.374 34.6531L131.877 35.2124C134.813 31.0878 137.4 25.3903 138.553 21.4405L143.796 23.2232C142.223 31.2276 136.246 38.9175 131.877 39.3719Z"
        fill="#FDF7EC" />
    <path
        d="M156.398 39.3719L151.224 37.3096L153.112 30.7383L147.275 39.3719L140.738 36.9951C140.878 30.3887 145.946 21.9299 151.399 21.4056L155.419 24.901L156.887 21.86L161.431 23.5378L156.398 39.3719ZM154.021 26.6487L153.252 25.8797C150.56 27.3477 147.379 31.3325 146.156 35.6318L146.785 36.0163L154.021 26.6487Z"
        fill="#FDF7EC" />
    <path
        d="M169.973 39.3719L165.639 35.7018L161.899 45.6637L156.795 42.5178L165.219 21.5454L170.288 23.5028L167.631 30.4237L173.923 21.3706L180.599 23.9222C180.494 30.4936 175.426 38.8127 169.973 39.3719ZM167.177 34.0939L168.121 34.8629C170.777 33.3948 174.028 29.445 175.216 25.2505L174.307 24.8311L167.177 34.0939Z"
        fill="#FDF7EC" />
    <path
        d="M32.1246 39.4069C30.237 39.4069 28.1748 39.1273 25.9727 38.533L26.6368 34.3385H35.2704V33.4297C32.2993 33.1501 29.9924 32.486 27.8252 31.2276C28.8389 26.2642 32.4042 21.9299 36.0744 21.4056L43.0652 23.7824L41.2825 30.1441L37.2628 29.7246L37.6823 25.0757C36.319 26.369 35.0257 28.2216 34.1519 30.3887L39.0105 32.2064L39.43 37.2397C37.9269 38.6029 35.3054 39.4069 32.1246 39.4069Z"
        stroke="#0E111E" stroke-width="4.93376" stroke-linejoin="bevel"
        mask="url(#path-2-outside-1_35_40)" />
    <path
        d="M55.8327 39.3719L51.1488 37.7291C49.7856 38.7428 48.8419 39.1972 47.5136 39.3719L40.8024 36.9601L45.6611 21.4405L51.2537 23.7824C50.7643 25.9496 49.6109 28.9906 46.3951 34.6881L47.8632 35.2474C50.5896 31.4374 52.7567 26.6836 54.5394 21.4405L59.5028 23.2232C58.4193 27.2079 56.8463 30.5635 54.3297 34.6531L55.8327 35.2124C58.7688 31.0878 61.3554 25.3903 62.5089 21.4405L67.752 23.2232C66.1791 31.2276 60.2019 38.9175 55.8327 39.3719Z"
        stroke="#0E111E" stroke-width="4.93376" stroke-linejoin="bevel"
        mask="url(#path-2-outside-1_35_40)" />
    <path
        d="M80.3535 39.3719L75.1803 37.3096L77.0678 30.7383L71.2305 39.3719L64.6941 36.9951C64.8339 30.3887 69.9022 21.9299 75.355 21.4056L79.3748 24.901L80.8428 21.86L85.3868 23.5378L80.3535 39.3719ZM77.9766 26.6487L77.2076 25.8797C74.5161 27.3477 71.3353 31.3325 70.1119 35.6318L70.7411 36.0163L77.9766 26.6487Z"
        stroke="#0E111E" stroke-width="4.93376" stroke-linejoin="bevel"
        mask="url(#path-2-outside-1_35_40)" />
    <path
        d="M96.4107 42.9023L90.8181 45.4539L86.5537 43.846L87.6373 40.3157L91.3075 41.0497L95.7816 29.7945C93.195 33.9191 90.2239 37.5893 87.078 39.3719L83.4078 36.8552L88.2665 21.4405L93.7193 23.7125C93.0901 26.6487 91.9366 29.8994 89.5597 33.4647L90.5734 34.024L98.8925 21.7901L99.277 21.9648L103.262 23.5727L96.4107 42.9023Z"
        stroke="#0E111E" stroke-width="4.93376" stroke-linejoin="bevel"
        mask="url(#path-2-outside-1_35_40)" />
    <path
        d="M108.169 39.4069C106.281 39.4069 104.219 39.1273 102.017 38.533L102.681 34.3385H111.315V33.4297C108.343 33.1501 106.036 32.486 103.869 31.2276C104.883 26.2642 108.448 21.9299 112.118 21.4056L119.109 23.7824L117.327 30.1441L113.307 29.7246L113.726 25.0757C112.363 26.369 111.07 28.2216 110.196 30.3887L115.055 32.2064L115.474 37.2397C113.971 38.6029 111.349 39.4069 108.169 39.4069Z"
        stroke="#0E111E" stroke-width="4.93376" stroke-linejoin="bevel"
        mask="url(#path-2-outside-1_35_40)" />
    <path
        d="M131.877 39.3719L127.193 37.7291C125.83 38.7428 124.886 39.1972 123.558 39.3719L116.847 36.9601L121.705 21.4405L127.298 23.7824C126.808 25.9496 125.655 28.9906 122.439 34.6881L123.907 35.2474C126.634 31.4374 128.801 26.6836 130.583 21.4405L135.547 23.2232C134.463 27.2079 132.89 30.5635 130.374 34.6531L131.877 35.2124C134.813 31.0878 137.4 25.3903 138.553 21.4405L143.796 23.2232C142.223 31.2276 136.246 38.9175 131.877 39.3719Z"
        stroke="#0E111E" stroke-width="4.93376" stroke-linejoin="bevel"
        mask="url(#path-2-outside-1_35_40)" />
    <path
        d="M156.398 39.3719L151.224 37.3096L153.112 30.7383L147.275 39.3719L140.738 36.9951C140.878 30.3887 145.946 21.9299 151.399 21.4056L155.419 24.901L156.887 21.86L161.431 23.5378L156.398 39.3719ZM154.021 26.6487L153.252 25.8797C150.56 27.3477 147.379 31.3325 146.156 35.6318L146.785 36.0163L154.021 26.6487Z"
        stroke="#0E111E" stroke-width="4.93376" stroke-linejoin="bevel"
        mask="url(#path-2-outside-1_35_40)" />
    <path
        d="M169.973 39.3719L165.639 35.7018L161.899 45.6637L156.795 42.5178L165.219 21.5454L170.288 23.5028L167.631 30.4237L173.923 21.3706L180.599 23.9222C180.494 30.4936 175.426 38.8127 169.973 39.3719ZM167.177 34.0939L168.121 34.8629C170.777 33.3948 174.028 29.445 175.216 25.2505L174.307 24.8311L167.177 34.0939Z"
        stroke="#0E111E" stroke-width="4.93376" stroke-linejoin="bevel"
        mask="url(#path-2-outside-1_35_40)" />
</svg>